<mxfile host="Electron" modified="2023-10-07T22:57:02.005Z" agent="Mozilla/5.0 (X11; Linux x86_64) AppleWebKit/537.36 (KHTML, like Gecko) draw.io/21.7.5 Chrome/114.0.5735.289 Electron/25.8.1 Safari/537.36" etag="xzDfB-SyWvKIh8BZbVwB" version="21.7.5" type="device">
  <diagram name="Page-1" id="HczXkENPXWMkNNwihsq-">
    <mxGraphModel dx="1728" dy="725" grid="1" gridSize="10" guides="1" tooltips="1" connect="1" arrows="1" fold="1" page="1" pageScale="1" pageWidth="750" pageHeight="650" math="0" shadow="0">
      <root>
        <mxCell id="0" />
        <mxCell id="1" parent="0" />
        <mxCell id="Us6DBiwictCqQd1LMeZS-13" value="" style="group" vertex="1" connectable="0" parent="1">
          <mxGeometry x="327" y="89" width="120" height="110" as="geometry" />
        </mxCell>
        <mxCell id="Us6DBiwictCqQd1LMeZS-1" value="" style="shape=cylinder3;whiteSpace=wrap;html=1;boundedLbl=1;backgroundOutline=1;size=12.76190476190473;" vertex="1" parent="Us6DBiwictCqQd1LMeZS-13">
          <mxGeometry x="10" width="100" height="110" as="geometry" />
        </mxCell>
        <mxCell id="Us6DBiwictCqQd1LMeZS-5" value="Ingroup&#xa;txid147541&#xa;AND 28S&#xa;AND RefSeq&#xa;= 4352 records" style="text;whiteSpace=wrap;align=center;" vertex="1" parent="Us6DBiwictCqQd1LMeZS-13">
          <mxGeometry y="23" width="120" height="70" as="geometry" />
        </mxCell>
        <mxCell id="Us6DBiwictCqQd1LMeZS-14" value="" style="group" vertex="1" connectable="0" parent="1">
          <mxGeometry x="8" y="89" width="120" height="110" as="geometry" />
        </mxCell>
        <mxCell id="Us6DBiwictCqQd1LMeZS-10" value="" style="shape=cylinder3;whiteSpace=wrap;html=1;boundedLbl=1;backgroundOutline=1;size=12.76190476190473;" vertex="1" parent="Us6DBiwictCqQd1LMeZS-14">
          <mxGeometry x="10" width="100" height="110" as="geometry" />
        </mxCell>
        <mxCell id="Us6DBiwictCqQd1LMeZS-11" value="Ingroup&#xa;GOPHY LSU&#xa;AND txid147541&#xa;= 126 records" style="text;whiteSpace=wrap;align=center;" vertex="1" parent="Us6DBiwictCqQd1LMeZS-14">
          <mxGeometry y="29" width="120" height="55" as="geometry" />
        </mxCell>
        <mxCell id="Us6DBiwictCqQd1LMeZS-53" style="edgeStyle=orthogonalEdgeStyle;rounded=0;orthogonalLoop=1;jettySize=auto;html=1;flowAnimation=1;" edge="1" parent="1" source="Us6DBiwictCqQd1LMeZS-26" target="Us6DBiwictCqQd1LMeZS-51">
          <mxGeometry relative="1" as="geometry" />
        </mxCell>
        <mxCell id="Us6DBiwictCqQd1LMeZS-26" value="GOPHY + Train" style="strokeWidth=2;html=1;shape=mxgraph.flowchart.multi-document;whiteSpace=wrap;" vertex="1" parent="1">
          <mxGeometry x="136" y="465" width="140" height="70" as="geometry" />
        </mxCell>
        <mxCell id="Us6DBiwictCqQd1LMeZS-35" style="edgeStyle=orthogonalEdgeStyle;rounded=0;orthogonalLoop=1;jettySize=auto;html=1;flowAnimation=1;" edge="1" parent="1" source="Us6DBiwictCqQd1LMeZS-17" target="Us6DBiwictCqQd1LMeZS-26">
          <mxGeometry relative="1" as="geometry" />
        </mxCell>
        <mxCell id="Us6DBiwictCqQd1LMeZS-17" value="&lt;font style=&quot;font-size: 12px;&quot;&gt;&lt;font style=&quot;font-size: 12px;&quot;&gt;Train 25%&lt;/font&gt;&lt;br&gt;(min. len. 800 bp)&lt;/font&gt;" style="strokeWidth=2;html=1;shape=mxgraph.flowchart.multi-document;whiteSpace=wrap;" vertex="1" parent="1">
          <mxGeometry x="242" y="305" width="141.67" height="80" as="geometry" />
        </mxCell>
        <mxCell id="Us6DBiwictCqQd1LMeZS-71" style="edgeStyle=orthogonalEdgeStyle;rounded=0;orthogonalLoop=1;jettySize=auto;html=1;flowAnimation=1;" edge="1" parent="1" source="Us6DBiwictCqQd1LMeZS-18" target="Us6DBiwictCqQd1LMeZS-68">
          <mxGeometry relative="1" as="geometry" />
        </mxCell>
        <mxCell id="Us6DBiwictCqQd1LMeZS-18" value="&lt;font style=&quot;font-size: 12px;&quot;&gt;Test&lt;br&gt;75%&lt;/font&gt;" style="strokeWidth=2;html=1;shape=mxgraph.flowchart.multi-document;whiteSpace=wrap;" vertex="1" parent="1">
          <mxGeometry x="402" y="305" width="130" height="80" as="geometry" />
        </mxCell>
        <mxCell id="Us6DBiwictCqQd1LMeZS-33" style="edgeStyle=orthogonalEdgeStyle;rounded=0;orthogonalLoop=1;jettySize=auto;html=1;flowAnimation=1;" edge="1" parent="1" source="Us6DBiwictCqQd1LMeZS-1" target="Us6DBiwictCqQd1LMeZS-17">
          <mxGeometry relative="1" as="geometry" />
        </mxCell>
        <mxCell id="Us6DBiwictCqQd1LMeZS-34" style="edgeStyle=orthogonalEdgeStyle;rounded=0;orthogonalLoop=1;jettySize=auto;html=1;flowAnimation=1;" edge="1" parent="1" source="Us6DBiwictCqQd1LMeZS-1" target="Us6DBiwictCqQd1LMeZS-18">
          <mxGeometry relative="1" as="geometry" />
        </mxCell>
        <mxCell id="Us6DBiwictCqQd1LMeZS-38" style="edgeStyle=orthogonalEdgeStyle;rounded=0;orthogonalLoop=1;jettySize=auto;html=1;flowAnimation=1;" edge="1" parent="1" source="Us6DBiwictCqQd1LMeZS-10" target="Us6DBiwictCqQd1LMeZS-26">
          <mxGeometry relative="1" as="geometry">
            <Array as="points">
              <mxPoint x="68" y="425" />
              <mxPoint x="206" y="425" />
            </Array>
          </mxGeometry>
        </mxCell>
        <mxCell id="Us6DBiwictCqQd1LMeZS-59" value="" style="group" vertex="1" connectable="0" parent="1">
          <mxGeometry x="597" y="575" width="140" height="60" as="geometry" />
        </mxCell>
        <mxCell id="Us6DBiwictCqQd1LMeZS-57" value="" style="verticalLabelPosition=bottom;verticalAlign=top;html=1;shape=process;whiteSpace=wrap;rounded=1;size=0.14;arcSize=6;" vertex="1" parent="Us6DBiwictCqQd1LMeZS-59">
          <mxGeometry width="140" height="60" as="geometry" />
        </mxCell>
        <mxCell id="Us6DBiwictCqQd1LMeZS-58" value="Generage phylogeny" style="text;html=1;strokeColor=none;fillColor=none;align=center;verticalAlign=middle;whiteSpace=wrap;rounded=0;" vertex="1" parent="Us6DBiwictCqQd1LMeZS-59">
          <mxGeometry x="40" y="15" width="60" height="30" as="geometry" />
        </mxCell>
        <mxCell id="Us6DBiwictCqQd1LMeZS-60" value="" style="group" vertex="1" connectable="0" parent="1">
          <mxGeometry x="136" y="575" width="140" height="60" as="geometry" />
        </mxCell>
        <mxCell id="Us6DBiwictCqQd1LMeZS-51" value="" style="verticalLabelPosition=bottom;verticalAlign=top;html=1;shape=process;whiteSpace=wrap;rounded=1;size=0.14;arcSize=6;" vertex="1" parent="Us6DBiwictCqQd1LMeZS-60">
          <mxGeometry width="140" height="60" as="geometry" />
        </mxCell>
        <mxCell id="Us6DBiwictCqQd1LMeZS-54" value="Align sequences" style="text;html=1;strokeColor=none;fillColor=none;align=center;verticalAlign=middle;whiteSpace=wrap;rounded=0;" vertex="1" parent="Us6DBiwictCqQd1LMeZS-60">
          <mxGeometry x="40" y="15" width="60" height="30" as="geometry" />
        </mxCell>
        <mxCell id="Us6DBiwictCqQd1LMeZS-61" style="edgeStyle=orthogonalEdgeStyle;rounded=0;orthogonalLoop=1;jettySize=auto;html=1;entryX=0;entryY=0.5;entryDx=0;entryDy=0;flowAnimation=1;" edge="1" parent="1" source="Us6DBiwictCqQd1LMeZS-51" target="Us6DBiwictCqQd1LMeZS-57">
          <mxGeometry relative="1" as="geometry" />
        </mxCell>
        <mxCell id="Us6DBiwictCqQd1LMeZS-62" value="" style="group" vertex="1" connectable="0" parent="1">
          <mxGeometry x="597" y="465" width="140" height="60" as="geometry" />
        </mxCell>
        <mxCell id="Us6DBiwictCqQd1LMeZS-63" value="" style="verticalLabelPosition=bottom;verticalAlign=top;html=1;shape=process;whiteSpace=wrap;rounded=1;size=0.14;arcSize=6;" vertex="1" parent="Us6DBiwictCqQd1LMeZS-62">
          <mxGeometry width="140" height="60" as="geometry" />
        </mxCell>
        <mxCell id="Us6DBiwictCqQd1LMeZS-64" value="Train Classeq" style="text;html=1;strokeColor=none;fillColor=none;align=center;verticalAlign=middle;whiteSpace=wrap;rounded=0;" vertex="1" parent="Us6DBiwictCqQd1LMeZS-62">
          <mxGeometry x="40" y="15" width="60" height="30" as="geometry" />
        </mxCell>
        <mxCell id="Us6DBiwictCqQd1LMeZS-65" style="edgeStyle=orthogonalEdgeStyle;rounded=0;orthogonalLoop=1;jettySize=auto;html=1;flowAnimation=1;" edge="1" parent="1" source="Us6DBiwictCqQd1LMeZS-57" target="Us6DBiwictCqQd1LMeZS-63">
          <mxGeometry relative="1" as="geometry" />
        </mxCell>
        <mxCell id="Us6DBiwictCqQd1LMeZS-66" style="edgeStyle=orthogonalEdgeStyle;rounded=0;orthogonalLoop=1;jettySize=auto;html=1;entryX=0;entryY=0.5;entryDx=0;entryDy=0;flowAnimation=1;" edge="1" parent="1" source="Us6DBiwictCqQd1LMeZS-51" target="Us6DBiwictCqQd1LMeZS-63">
          <mxGeometry relative="1" as="geometry" />
        </mxCell>
        <mxCell id="Us6DBiwictCqQd1LMeZS-67" value="" style="group" vertex="1" connectable="0" parent="1">
          <mxGeometry x="597" y="315" width="140" height="60" as="geometry" />
        </mxCell>
        <mxCell id="Us6DBiwictCqQd1LMeZS-68" value="" style="verticalLabelPosition=bottom;verticalAlign=top;html=1;shape=process;whiteSpace=wrap;rounded=1;size=0.14;arcSize=6;" vertex="1" parent="Us6DBiwictCqQd1LMeZS-67">
          <mxGeometry width="140" height="60" as="geometry" />
        </mxCell>
        <mxCell id="Us6DBiwictCqQd1LMeZS-69" value="Predict test data" style="text;html=1;strokeColor=none;fillColor=none;align=center;verticalAlign=middle;whiteSpace=wrap;rounded=0;" vertex="1" parent="Us6DBiwictCqQd1LMeZS-67">
          <mxGeometry x="40" y="15" width="60" height="30" as="geometry" />
        </mxCell>
        <mxCell id="Us6DBiwictCqQd1LMeZS-70" style="edgeStyle=orthogonalEdgeStyle;rounded=0;orthogonalLoop=1;jettySize=auto;html=1;flowAnimation=1;" edge="1" parent="1" source="Us6DBiwictCqQd1LMeZS-63" target="Us6DBiwictCqQd1LMeZS-68">
          <mxGeometry relative="1" as="geometry" />
        </mxCell>
        <mxCell id="Us6DBiwictCqQd1LMeZS-73" style="edgeStyle=orthogonalEdgeStyle;rounded=0;orthogonalLoop=1;jettySize=auto;html=1;flowAnimation=1;entryX=0.5;entryY=0;entryDx=0;entryDy=0;entryPerimeter=0;" edge="1" parent="1" source="Us6DBiwictCqQd1LMeZS-72" target="Us6DBiwictCqQd1LMeZS-1">
          <mxGeometry relative="1" as="geometry">
            <mxPoint x="387" y="19" as="targetPoint" />
          </mxGeometry>
        </mxCell>
        <mxCell id="Us6DBiwictCqQd1LMeZS-74" style="edgeStyle=orthogonalEdgeStyle;rounded=0;orthogonalLoop=1;jettySize=auto;html=1;flowAnimation=1;" edge="1" parent="1" source="Us6DBiwictCqQd1LMeZS-72" target="Us6DBiwictCqQd1LMeZS-10">
          <mxGeometry relative="1" as="geometry">
            <mxPoint x="68.02857142857147" y="19" as="targetPoint" />
          </mxGeometry>
        </mxCell>
        <mxCell id="Us6DBiwictCqQd1LMeZS-81" style="edgeStyle=orthogonalEdgeStyle;rounded=0;orthogonalLoop=1;jettySize=auto;html=1;flowAnimation=1;" edge="1" parent="1" source="Us6DBiwictCqQd1LMeZS-72" target="Us6DBiwictCqQd1LMeZS-78">
          <mxGeometry relative="1" as="geometry" />
        </mxCell>
        <mxCell id="Us6DBiwictCqQd1LMeZS-72" value="START" style="html=1;dashed=0;whiteSpace=wrap;shape=mxgraph.dfd.start" vertex="1" parent="1">
          <mxGeometry x="166" y="15" width="80" height="30" as="geometry" />
        </mxCell>
        <mxCell id="Us6DBiwictCqQd1LMeZS-75" value="END" style="html=1;dashed=0;whiteSpace=wrap;shape=mxgraph.dfd.start" vertex="1" parent="1">
          <mxGeometry x="627" y="15" width="80" height="30" as="geometry" />
        </mxCell>
        <mxCell id="Us6DBiwictCqQd1LMeZS-76" style="edgeStyle=orthogonalEdgeStyle;rounded=0;orthogonalLoop=1;jettySize=auto;html=1;flowAnimation=1;" edge="1" parent="1" source="Us6DBiwictCqQd1LMeZS-68" target="Us6DBiwictCqQd1LMeZS-75">
          <mxGeometry relative="1" as="geometry" />
        </mxCell>
        <mxCell id="Us6DBiwictCqQd1LMeZS-77" value="" style="group" vertex="1" connectable="0" parent="1">
          <mxGeometry x="146" y="90" width="120" height="110" as="geometry" />
        </mxCell>
        <mxCell id="Us6DBiwictCqQd1LMeZS-78" value="" style="shape=cylinder3;whiteSpace=wrap;html=1;boundedLbl=1;backgroundOutline=1;size=12.76190476190473;" vertex="1" parent="Us6DBiwictCqQd1LMeZS-77">
          <mxGeometry x="10" width="100" height="110" as="geometry" />
        </mxCell>
        <mxCell id="Us6DBiwictCqQd1LMeZS-79" value="Outgroup&#xa;txid147550&#xa;AND 28S&#xa;AND RefSeq&#xa;= 15 records" style="text;whiteSpace=wrap;align=center;" vertex="1" parent="Us6DBiwictCqQd1LMeZS-77">
          <mxGeometry y="24" width="120" height="75" as="geometry" />
        </mxCell>
        <mxCell id="Us6DBiwictCqQd1LMeZS-82" style="edgeStyle=orthogonalEdgeStyle;rounded=0;orthogonalLoop=1;jettySize=auto;html=1;flowAnimation=1;" edge="1" parent="1" source="Us6DBiwictCqQd1LMeZS-78" target="Us6DBiwictCqQd1LMeZS-26">
          <mxGeometry relative="1" as="geometry" />
        </mxCell>
      </root>
    </mxGraphModel>
  </diagram>
</mxfile>
